<svg data-v-0dd9719b="" version="1.0" xmlns="http://www.w3.org/2000/svg" xmlns:xlink="http://www.w3.org/1999/xlink" width="100%" height="100%" viewBox="0 0 340.000000 250.000000" preserveAspectRatio="xMidYMid meet" color-interpolation-filters="sRGB" style="margin: auto;">   <g data-v-0dd9719b="" fill="#000000" class="icon-text-wrapper icon-svg-group iconsvg" transform="translate(44.474998474121094,89.7353401184082)"><g class="iconsvg-imagesvg" transform="translate(0,0)"><g><rect fill="#000000" fill-opacity="0" stroke-width="2" x="0" y="0" width="60" height="70.52932256585676" class="image-rect"></rect> <svg x="0" y="0" width="60" height="70.52932256585676" filtersec="colorsb5406731345" class="image-svg-svg primary" style="overflow: visible;"><svg xmlns="http://www.w3.org/2000/svg" viewBox="0 0 85.07064819335938 100"><path d="M52.62 4.81L12.86 28.44 25.94 36c-4.66 15.54-8.79 37.2 1 51.38.34.5.68.93 1 1.39 4.66 5.86 11.14 9.32 18.24 11.23C24.46 99 0 68.48 0 47 0 23 19.06 3.58 42.54 3.58a42.62 42.62 0 0 1 8.2.8L60.77 0z" fill="#FF9F43"></path><path d="M63.08 1.57l3.3 9.43a43.56 43.56 0 0 1 18.69 36c0 21.22-14.9 38.86-34.61 42.66l-2.31 7.58a55.9 55.9 0 0 1-4.07-6.87c-6.85-13.7-5.25-26.59 6.32-39l12.68 6.75V1.57z" fill="#000000"></path><path d="M57.13 4.26L16.47 28.41l11.63 6.75C18.45 66.59 21.5 88 41.21 96.39 14.53 71 39.51 30.91 57.13 4.26z" fill="#000000"></path><path d="M50 49l11.23 6V5.58C44.7 30.6 20.51 68.63 43 92.2 35.19 77.45 36.46 63 50 49z" fill="#FF9F43"></path></svg></svg> <!----></g></g> <g transform="translate(67,21.709659576416016)"><g data-gra="path-name" fill-rule="" class="tp-name iconsvg-namesvg"><g transform="scale(1)"><g><path d="M18.78-6L21.64-3.17Q19.96-1.48 17.73-0.52 15.51 0.44 12.95 0.44L12.95 0.44Q10.42 0.44 8.18-0.52 5.93-1.48 4.26-3.15 2.6-4.82 1.64-7.06 0.67-9.31 0.67-11.83L0.67-11.83Q0.67-14.36 1.64-16.6 2.6-18.85 4.26-20.52 5.93-22.18 8.18-23.14 10.42-24.11 12.95-24.11L12.95-24.11Q15.51-24.11 17.73-23.14 19.96-22.18 21.64-20.5L21.64-20.5 18.78-17.63Q17.6-18.81 16.12-19.44 14.63-20.06 12.95-20.06L12.95-20.06Q11.29-20.06 9.81-19.44 8.33-18.81 7.15-17.63L7.15-17.63Q5.97-16.45 5.34-14.97 4.72-13.49 4.72-11.83L4.72-11.83Q4.72-10.18 5.34-8.68 5.97-7.18 7.15-6L7.15-6Q8.33-4.82 9.81-4.21 11.29-3.61 12.95-3.61L12.95-3.61Q14.63-3.61 16.12-4.21 17.6-4.82 18.78-6L18.78-6ZM33.55-20.06L33.55-20.06Q31.89-20.06 30.41-19.44 28.93-18.81 27.75-17.63L27.75-17.63Q26.57-16.45 25.94-14.97 25.32-13.49 25.32-11.83L25.32-11.83Q25.32-10.18 25.94-8.68 26.57-7.18 27.75-6L27.75-6Q28.93-4.82 30.41-4.21 31.89-3.61 33.55-3.61L33.55-3.61Q35.2-3.61 36.7-4.21 38.2-4.82 39.38-6L39.38-6Q40.56-7.18 41.17-8.68 41.77-10.18 41.77-11.83L41.77-11.83Q41.77-13.49 41.17-14.97 40.56-16.45 39.38-17.63L39.38-17.63Q38.2-18.81 36.7-19.44 35.2-20.06 33.55-20.06ZM33.55-24.11L33.55-24.11Q36.07-24.11 38.32-23.14 40.56-22.18 42.23-20.52 43.9-18.85 44.86-16.6 45.82-14.36 45.82-11.83L45.82-11.83Q45.82-9.31 44.86-7.06 43.9-4.82 42.23-3.15 40.56-1.48 38.32-0.52 36.07 0.44 33.55 0.44L33.55 0.44Q31.02 0.44 28.78-0.52 26.53-1.48 24.86-3.15 23.2-4.82 22.23-7.06 21.27-9.31 21.27-11.83L21.27-11.83Q21.27-14.36 22.23-16.6 23.2-18.85 24.86-20.52 26.53-22.18 28.78-23.14 31.02-24.11 33.55-24.11ZM57.62-23.6L57.62-23.6Q60.04-23.6 62.2-22.67 64.36-21.75 65.96-20.14 67.56-18.54 68.49-16.39 69.42-14.23 69.42-11.8L69.42-11.8Q69.42-9.37 68.49-7.21 67.56-5.06 65.96-3.46 64.36-1.85 62.2-0.93 60.04 0 57.62 0L57.62 0 53.44 0 55.09-4.05 57.62-4.05Q59.17-4.05 60.58-4.64 62-5.23 63.11-6.3L63.11-6.3Q64.19-7.42 64.78-8.82 65.37-10.22 65.37-11.8L65.37-11.8Q65.37-13.35 64.78-14.77 64.19-16.18 63.11-17.3L63.11-17.3Q62-18.37 60.58-18.96 59.17-19.55 57.62-19.55L57.62-19.55 51.89-19.55 51.89-9.78 51.89-4.05 51.89 0 47.84 0 47.84-23.6 57.62-23.6ZM87.52-6.74L87.52-6.74Q87.52-5.09 86.98-3.76 86.44-2.43 85.45-1.5 84.45-0.57 83.04-0.07 81.62 0.44 79.87 0.44L79.87 0.44Q77.07 0.44 74.88-0.46 72.69-1.35 71.27-2.49L71.27-2.49 74.07-5.29Q75.18-4.28 76.56-3.74L76.56-3.74Q77.41-3.41 78.15-3.3 78.89-3.2 79.36-3.2L79.36-3.2Q80.24-3.2 80.96-3.42 81.69-3.64 82.23-4.01L82.23-4.01Q83.38-4.85 83.38-6.24L83.38-6.24Q83.38-7.08 82.77-7.75L82.77-7.75Q82.3-8.29 81.55-8.63L81.55-8.63Q80.95-8.97 80.27-9.17 79.6-9.37 79.06-9.54L79.06-9.54Q78.89-9.61 78.76-9.63 78.62-9.64 78.52-9.71L78.52-9.71Q78.45-9.71 78.32-9.78L78.32-9.78Q77.61-9.98 76.28-10.49 74.95-10.99 73.63-11.87L73.63-11.87Q70.56-13.92 70.56-16.92L70.56-16.92Q70.56-18.91 71.25-20.28 71.95-21.64 73.06-22.5 74.17-23.36 75.54-23.73 76.9-24.11 78.22-24.11L78.22-24.11Q80.64-24.11 82.3-23.53 83.95-22.96 84.93-22.39L84.93-22.39Q85.43-22.08 85.79-21.8 86.14-21.51 86.41-21.27L86.41-21.27 83.54-18.37Q82.63-19.28 81.69-19.76L81.69-19.76Q80.27-20.43 78.72-20.43L78.72-20.43Q78.05-20.43 77.37-20.26 76.7-20.09 76.19-19.82L76.19-19.82Q74.71-18.91 74.71-17.43L74.71-17.43Q74.71-16.52 75.32-15.88L75.32-15.88Q75.76-15.37 76.53-14.97L76.53-14.97Q77.17-14.63 77.88-14.43 78.59-14.23 79.19-14.06L79.19-14.06 79.6-13.96Q79.77-13.89 80.24-13.76 80.71-13.62 81.35-13.35 81.99-13.08 82.75-12.71 83.51-12.34 84.25-11.83L84.25-11.83Q87.52-9.68 87.52-6.74ZM113.72-11.83L113.72-11.83Q113.72-9.88 113.16-8.13 112.61-6.37 111.59-4.89L111.59-4.89 113.72-2.73 113.72 3 101.45-9.27 101.45-15 108.66-7.82Q109.67-9.64 109.67-11.83L109.67-11.83Q109.67-13.49 109.07-14.97 108.46-16.45 107.28-17.63L107.28-17.63Q106.1-18.81 104.62-19.44 103.13-20.06 101.45-20.06L101.45-20.06Q99.79-20.06 98.31-19.44 96.83-18.81 95.65-17.63L95.65-17.63Q94.47-16.45 93.86-14.97 93.25-13.49 93.25-11.83L93.25-11.83Q93.25-10.18 93.86-8.68 94.47-7.18 95.65-6L95.65-6Q96.83-4.82 98.31-4.21 99.79-3.61 101.45-3.61L101.45-3.61Q101.88-3.61 102.31-3.66 102.73-3.71 103.13-3.78L103.13-3.78 106.33-0.57Q105.22-0.1 103.99 0.17 102.76 0.44 101.45 0.44L101.45 0.44Q98.92 0.44 96.68-0.52 94.43-1.48 92.78-3.15 91.13-4.82 90.17-7.06 89.21-9.31 89.21-11.83L89.21-11.83Q89.21-14.36 90.17-16.6 91.13-18.85 92.78-20.52 94.43-22.18 96.68-23.14 98.92-24.11 101.45-24.11L101.45-24.11Q104.01-24.11 106.23-23.14 108.46-22.18 110.13-20.52 111.8-18.85 112.76-16.6 113.72-14.36 113.72-11.83ZM132.02-23.6L136.07-23.6 136.07-9.44Q136.07-7.38 135.29-5.58 134.52-3.78 133.17-2.43 131.82-1.08 130.02-0.3 128.22 0.47 126.16 0.47L126.16 0.47Q124.1 0.47 122.3-0.3 120.49-1.08 119.15-2.43 117.8-3.78 117.02-5.58 116.25-7.38 116.25-9.44L116.25-9.44 116.25-23.6 120.29-23.6 120.29-9.44Q120.29-8.26 120.73-7.2 121.17-6.14 122.01-5.29L122.01-5.29Q122.85-4.45 123.92-4.01 124.98-3.57 126.16-3.57L126.16-3.57Q128.59-3.57 130.31-5.29L130.31-5.29Q131.15-6.14 131.59-7.2 132.02-8.26 132.02-9.44L132.02-9.44 132.02-23.6ZM150.97-23.6L150.97-23.6 161.63 0 157.18 0 155.35-4.05 155.35-4.05 153.53-8.09 153.53-8.09 148.75-18.68 143.96-8.09 150.1-8.09 151.92-4.05 142.14-4.05 140.32 0 135.87 0 146.52-23.6 150.97-23.6ZM172.92-23.6L172.92-23.6Q175.35-23.6 177.51-22.67 179.66-21.75 181.26-20.14 182.87-18.54 183.79-16.39 184.72-14.23 184.72-11.8L184.72-11.8Q184.72-9.37 183.79-7.21 182.87-5.06 181.26-3.46 179.66-1.85 177.51-0.93 175.35 0 172.92 0L172.92 0 168.74 0 170.39-4.05 172.92-4.05Q174.47-4.05 175.89-4.64 177.3-5.23 178.42-6.3L178.42-6.3Q179.49-7.42 180.08-8.82 180.67-10.22 180.67-11.8L180.67-11.8Q180.67-13.35 180.08-14.77 179.49-16.18 178.42-17.3L178.42-17.3Q177.3-18.37 175.89-18.96 174.47-19.55 172.92-19.55L172.92-19.55 167.19-19.55 167.19-9.78 167.19-4.05 167.19 0 163.14 0 163.14-23.6 172.92-23.6Z" transform="translate(-0.6700000166893005, 24.110000610351562)"></path></g> <!----> <!----> <!----> <!----> <!----> <!----> <!----></g></g> <!----></g></g><defs v-gra="od"></defs></svg>